<?xml version="1.0" encoding="UTF-8" standalone="no"?> <svg xmlns="http://www.w3.org/2000/svg" viewBox="0 0 32 32"><defs><style>.cls-1{fill:#3f464d;}.cls-2{fill:#363f47;}.cls-3{fill:#e6e6e6;}</style></defs><title>Analog, audio, tape</title><g id="_01" data-name="01"><rect class="cls-1" x="5" y="8" width="22" height="16" rx="1.52" ry="1.52"/><path class="cls-2" d="M21.25,20.89A2.484,2.484,0,0,0,18.83,19H13.17a2.484,2.484,0,0,0-2.42,1.89L9.97,24H22.03Z"/><path class="cls-3" d="M20.284,21.136A1.5,1.5,0,0,0,18.829,20H13.171a1.5,1.5,0,0,0-1.455,1.136L11,24H21Z"/><rect class="cls-3" x="9" y="10" width="14" height="2"/><path class="cls-3" d="M12.22,14a2.954,2.954,0,0,1,0,4h7.56a2.954,2.954,0,0,1,0-4Z"/><circle class="cls-3" cx="10" cy="16" r="2"/><circle class="cls-3" cx="22" cy="16" r="2"/></g></svg>