<?xml version="1.0" encoding="utf-8"?>
<!-- Generator: Adobe Illustrator 18.0.0, SVG Export Plug-In . SVG Version: 6.00 Build 0)  -->
<!DOCTYPE svg PUBLIC "-//W3C//DTD SVG 1.1//EN" "http://www.w3.org/Graphics/SVG/1.1/DTD/svg11.dtd">
<svg version="1.1" id="Layer_1" xmlns="http://www.w3.org/2000/svg" xmlns:xlink="http://www.w3.org/1999/xlink" x="0px" y="0px"
	 viewBox="0 0 79.5 78.3" enable-background="new 0 0 79.5 78.3" xml:space="preserve">
<g>
	<path fill="#4E4F50" d="M8,67.5l-3.3,7.5C4.6,75.3,4.7,75.8,5,76c0.2,0.2,0.5,0.3,0.7,0.3c0.1,0,0.3,0,0.4-0.1l7.5-3.3
		c0.1-0.1,0.2-0.1,0.3-0.2L34.6,52L29,46.4L8.2,67.2C8.2,67.3,8.1,67.4,8,67.5z M29,49.4l2.6,2.6L12.5,71.1l-4.6,2l2-4.6L29,49.4z"
		/>
	<path fill="#4E4F50" d="M44.4,14.5L29.2,29.7c-0.9-0.3-1.9-0.4-3-0.4c-3.3,0-7.2,1.3-11.6,3.7c-0.3,0.2-0.5,0.4-0.5,0.7
		c0,0.3,0.1,0.6,0.3,0.8l13.2,13.2l0,0l5.6,5.6l0,0l14.2,14.2c0.2,0.2,0.4,0.3,0.7,0.3c0,0,0.1,0,0.1,0c0.3,0,0.6-0.2,0.7-0.5
		c5.2-9.1,3.7-14.1,2.8-16l14.8-14.8L44.4,14.5z"/>
	<path fill="#4E4F50" d="M70.3,38.9c0.4,0.3,1,0.3,1.3-0.1l5-5c0.4-0.4,0.4-1,0-1.4L48.8,4.5c-0.4-0.4-1-0.4-1.4,0l-5,5
		c-0.4,0.4-0.4,1,0,1.4l2.8,2.8l0,0L70.3,38.9z"/>
</g>
</svg>
