<svg xmlns="http://www.w3.org/2000/svg" xmlns:xlink="http://www.w3.org/1999/xlink" viewBox="0 0 64 64"><defs><style>.cls-1{fill:url(#linear-gradient);}.cls-2{fill:url(#linear-gradient-2);}.cls-3{fill:url(#linear-gradient-3);}</style><linearGradient id="linear-gradient" x1="2.5" y1="19.23" x2="41.52" y2="19.23" gradientUnits="userSpaceOnUse"><stop offset="0" stop-color="#0c90f2"/><stop offset="0.42" stop-color="#6bb8f1"/><stop offset="0.82" stop-color="#bfdbef"/><stop offset="1" stop-color="#e0e9ef"/></linearGradient><linearGradient id="linear-gradient-2" x1="53.16" y1="50.61" x2="-11.84" y2="-6.56" xlink:href="#linear-gradient"/><linearGradient id="linear-gradient-3" x1="17.5" y1="38.64" x2="46.5" y2="38.64" gradientUnits="userSpaceOnUse"><stop offset="0" stop-color="#bb3590"/><stop offset="0.15" stop-color="#c14b98"/><stop offset="0.73" stop-color="#d89eb5"/><stop offset="1" stop-color="#e1bfc1"/></linearGradient></defs><g id="Layer_59" data-name="Layer 59"><polygon class="cls-1" points="37.67 14.82 2.5 14.82 2.5 16.32 2.5 20.64 2.5 23.64 5.5 23.64 34.43 23.64 39.11 17.82 41.52 14.82 37.67 14.82"/><polygon class="cls-2" points="60 7.86 44 7.86 43.28 7.86 37.67 14.82 35.26 17.82 33 20.64 5.5 20.64 2.5 20.64 2.5 23.64 2.5 54.65 2.5 56.15 61.5 56.15 61.5 7.86 60 7.86"/><circle class="cls-3" cx="32" cy="38.64" r="14.5"/><path d="M60,7.86H43.28l-5.61,7H2.5V56.14h59V7.86Zm-24.74,10L33,20.63H5.5V17.82ZM58.5,53.14H5.5V23.63H34.43l4.68-5.81H52v-3H41.52l3.2-4H58.5Z"/><path d="M46.5,38.64A14.5,14.5,0,1,0,32,53.14,14.52,14.52,0,0,0,46.5,38.64ZM32,27.14a11.51,11.51,0,0,1,11.5,11.5,11.3,11.3,0,0,1-.64,3.74L37,36.52l-3.9,3.9-5-6-7.33,6.77a11.08,11.08,0,0,1-.31-2.6A11.51,11.51,0,0,1,32,27.14Zm0,23a11.51,11.51,0,0,1-10-5.89l5.89-5.43,5,6,4.1-4.1,4.44,4.44A11.51,11.51,0,0,1,32,50.14Z"/></g></svg>