<svg xmlns="http://www.w3.org/2000/svg" xmlns:xlink="http://www.w3.org/1999/xlink" viewBox="0 0 64 64"><defs><style>.cls-1{fill:url(#linear-gradient);}.cls-2{fill:url(#linear-gradient-2);}.cls-3{fill:url(#linear-gradient-3);}.cls-4{fill:url(#linear-gradient-4);}</style><linearGradient id="linear-gradient" x1="68.43" y1="58.45" x2="2.93" y2="50.45" gradientUnits="userSpaceOnUse"><stop offset="0" stop-color="#0c90f2"/><stop offset="0.42" stop-color="#6bb8f1"/><stop offset="0.82" stop-color="#bfdbef"/><stop offset="1" stop-color="#e0e9ef"/></linearGradient><linearGradient id="linear-gradient-2" x1="8.5" y1="29" x2="55.5" y2="29" xlink:href="#linear-gradient"/><linearGradient id="linear-gradient-3" x1="36.48" y1="2.12" x2="10.1" y2="17.99" xlink:href="#linear-gradient"/><linearGradient id="linear-gradient-4" x1="17.5" y1="32" x2="46.5" y2="32" gradientUnits="userSpaceOnUse"><stop offset="0" stop-color="#bb3590"/><stop offset="0.15" stop-color="#c14b98"/><stop offset="0.73" stop-color="#d89eb5"/><stop offset="1" stop-color="#e1bfc1"/></linearGradient></defs><g id="Layer_5" data-name="Layer 5"><polygon class="cls-1" points="52.5 46.5 40.07 46.5 37.07 52.5 11.5 52.5 8.5 52.5 8.5 55.5 8.5 61.5 55.5 61.5 55.5 49.5 55.5 46.5 52.5 46.5"/><polygon class="cls-2" points="24.07 2.5 21.96 2.5 21.07 3.38 21.07 7.6 21.07 14.94 13.65 14.94 9.39 14.94 8.5 15.82 8.5 17.94 8.5 52.5 8.5 55.5 11.5 55.5 38.93 55.5 41.93 49.5 52.5 49.5 55.5 49.5 55.5 46.5 55.5 2.5 24.07 2.5"/><polygon class="cls-3" points="21.96 2.5 21.07 3.38 9.39 14.94 8.5 15.82 8.5 17.94 11.5 17.94 24.07 17.94 24.07 5.5 24.07 2.5 21.96 2.5"/><circle class="cls-4" cx="32" cy="32" r="14.5"/><path d="M22,2.5,8.5,15.82V61.5h47V2.5Zm30.55,44H40.07l-3,6H11.5V17.94H24.07V5.5H52.5ZM13.65,14.94,21.07,7.6v7.34ZM11.5,58.5v-3H38.93l3-6H52.5v9Z"/><path d="M17.5,32A14.5,14.5,0,1,0,32,17.5,14.51,14.51,0,0,0,17.5,32Zm26,0A11.5,11.5,0,1,1,32,20.5,11.51,11.51,0,0,1,43.5,32Z"/><rect x="23" y="26.5" width="18" height="3"/><rect x="23" y="34.5" width="18" height="3"/></g></svg>