<?xml version="1.0" encoding="utf-8"?>
<!-- Generator: Adobe Illustrator 23.0.3, SVG Export Plug-In . SVG Version: 6.00 Build 0)  -->
<svg version="1.1" id="Layer_1" xmlns="http://www.w3.org/2000/svg" xmlns:xlink="http://www.w3.org/1999/xlink" x="0px" y="0px"
	 viewBox="0 0 153.6 153.6" style="enable-background:new 0 0 153.6 153.6;" xml:space="preserve">
<style type="text/css">
	.st0{fill:#E43BA0;}
	.st1{fill:#F569B0;}
	.st2{fill:#70D1C0;}
	.st3{fill:#66C4A3;}
	.st4{fill:#4C9AE8;}
	.st5{fill:#57B9E2;}
	.st6{fill:#B060FF;}
	.st7{fill:#7B78EB;}
	.st8{fill:#52E3D6;}
	.st9{fill:#3F93E4;}
	.st10{fill:#F19236;}
	.st11{fill:#FF4F4F;}
	.st12{fill:#2CC6E2;}
	.st13{fill:#78D32E;}
	.st14{fill:#E23F40;}
	.st15{fill:#40A4E2;}
	.st16{fill:#37CFA0;}
	.st17{fill:#3EC1CB;}
	.st18{fill:#3FC2CC;}
	.st19{fill:#3FC2CB;}
	.st20{fill:#42C3CC;}
	.st21{fill:#40C2CC;}
	.st22{fill:#49C5CE;}
	.st23{fill:#41C2CC;}
	.st24{fill:#43C3CC;}
	.st25{fill:#42C2CC;}
	.st26{fill:#43C3CD;}
	.st27{fill:#F0F8F8;}
	.st28{fill:#F1F8F8;}
	.st29{fill:#EEF7F7;}
	.st30{fill:#EBF6F7;}
	.st31{fill:#ECF7F7;}
	.st32{fill:#E0F3F4;}
	.st33{fill:#E6F5F5;}
	.st34{fill:#E8F5F6;}
	.st35{fill:#EFF7F7;}
	.st36{fill:#3FC1CB;}
	.st37{fill:#45C4CD;}
	.st38{fill:#46C4CD;}
	.st39{fill:#44C3CD;}
	.st40{fill:#45C3CD;}
	.st41{fill:#143755;}
	.st42{fill:#DDB833;}
	.st43{fill:#E2BB3C;}
	.st44{fill:#67C7A5;}
	.st45{fill:#D573B0;}
	.st46{fill:#EF6067;}
	.st47{fill:#3BCBF2;}
	.st48{fill:#3BC6E5;}
	.st49{fill:url(#SVGID_1_);}
	.st50{fill:url(#SVGID_2_);}
	.st51{fill:url(#SVGID_3_);}
	.st52{fill:url(#SVGID_4_);}
	.st53{fill:url(#SVGID_5_);}
	.st54{fill:url(#SVGID_6_);}
	.st55{fill:url(#SVGID_7_);}
	.st56{fill:url(#SVGID_8_);}
	.st57{fill:url(#SVGID_9_);}
	.st58{fill:url(#SVGID_10_);}
	.st59{fill:url(#SVGID_11_);}
	.st60{fill:url(#SVGID_12_);}
	.st61{fill:#FFFFFF;}
	.st62{fill:url(#SVGID_13_);}
	.st63{fill:url(#SVGID_14_);}
	.st64{fill:url(#SVGID_15_);}
	.st65{fill:url(#SVGID_16_);}
	.st66{fill:url(#SVGID_17_);}
	.st67{fill:url(#SVGID_18_);}
	.st68{fill:url(#SVGID_19_);}
	.st69{fill:url(#SVGID_20_);}
	.st70{fill:url(#SVGID_21_);}
	.st71{fill:url(#SVGID_22_);}
	.st72{fill:url(#SVGID_23_);}
	.st73{fill:url(#SVGID_24_);}
	.st74{fill:url(#SVGID_25_);}
	.st75{fill:url(#SVGID_26_);}
	.st76{fill:url(#SVGID_27_);}
	.st77{fill:url(#SVGID_28_);}
	.st78{fill:url(#SVGID_29_);}
	.st79{fill:url(#SVGID_30_);}
	.st80{fill:url(#SVGID_31_);}
	.st81{fill:url(#SVGID_32_);}
	.st82{fill:url(#SVGID_33_);}
	.st83{fill:url(#SVGID_34_);}
	.st84{fill:url(#SVGID_35_);}
	.st85{fill:url(#SVGID_36_);}
	.st86{fill:url(#SVGID_37_);}
	.st87{fill:url(#SVGID_38_);}
	.st88{fill:url(#SVGID_39_);}
	.st89{fill:url(#SVGID_40_);}
	.st90{fill:url(#SVGID_41_);}
	.st91{fill:url(#SVGID_42_);}
	.st92{fill:url(#SVGID_43_);}
	.st93{fill:url(#SVGID_44_);}
	.st94{fill:url(#SVGID_45_);}
	.st95{fill:url(#SVGID_46_);}
	.st96{fill:url(#SVGID_47_);}
	.st97{fill:url(#SVGID_48_);}
	.st98{fill:url(#SVGID_49_);}
	.st99{fill:url(#SVGID_50_);}
	.st100{fill:url(#SVGID_51_);}
	.st101{fill:url(#SVGID_52_);}
	.st102{fill:url(#SVGID_53_);}
	.st103{fill:url(#SVGID_54_);}
	.st104{fill:url(#SVGID_55_);}
	.st105{fill:url(#SVGID_56_);}
	.st106{fill:url(#SVGID_57_);}
	.st107{fill:url(#SVGID_58_);}
	.st108{fill:url(#SVGID_59_);}
	.st109{fill:url(#SVGID_60_);}
	.st110{fill:url(#SVGID_61_);}
	.st111{fill:url(#SVGID_62_);}
</style>
<g>
	<g>
		<path class="st41" d="M113.5,61.6c3.6,7.3,3.1,13.6-3,18.9c-1.4,1.2-0.5,2,0.1,3c4,7.4,3.5,11.6-2.4,18.1c-1.2,1.3-1.1,2-0.4,3.4
			c6.1,11.5,0.2,21.2-12.7,21.2c-13,0-26,0.2-39,0c-23.5-0.3-42.7-17.8-45.1-40.9C8.7,62.6,23.5,41.6,45.9,36.1
			c3.2-0.8,6.5-1.3,9.7-1.3c24.3-0.1,48.7-0.1,73,0c8.3,0,14.2,5.9,14.1,13.6c-0.1,7.8-5.9,13.2-14.4,13.3c-3.7,0-7.5,0-11.2,0
			C116.1,61.6,115.1,61.6,113.5,61.6z"/>
		<path class="st41" d="M127.8,136.9c-8.8,0-14.3-7.1-12.1-15.6c1.7-6.6,6-11.6,10.7-16.2c0.9-0.9,1.6-1.2,2.6-0.2
			c4.9,4.7,9.5,9.5,11.2,16.4C142.2,129.6,136.5,136.9,127.8,136.9z"/>
		<path class="st48" d="M125.5,16.2c-0.1,1.8,0,3.6-0.3,5.3c-0.2,1.4-1.1,2.4-2.7,2.4c-1.6,0-2.6-1.1-2.6-2.5
			c-0.2-3.5-0.2-7.1-0.1-10.6c0.1-1.6,1.1-2.9,2.8-2.8c1.7,0,2.6,1.3,2.8,2.9c0.1,1.8,0,3.6,0,5.3C125.4,16.2,125.5,16.2,125.5,16.2
			z"/>
		<path class="st48" d="M133.1,84.3c-0.1,3.6-2,5.6-5.2,5.6c-3.2,0-5.2-2-5.1-5.5c0.1-3.2,1.8-5,5-5
			C131.2,79.3,132.9,81.1,133.1,84.3z"/>
		<path class="st48" d="M116.5,26.2c-0.4,2.1-2.2,3.1-3.8,1.9c-2.9-2.2-5.6-4.8-7.8-7.7c-1.3-1.7-0.1-3.4,2.2-3.6
			C108.8,16.6,116.5,24.3,116.5,26.2z"/>
		<path class="st48" d="M140.7,19c0,2-7.6,9.4-9.2,9.5c-1.1,0.1-2-0.3-2.6-1.4c-0.6-1.1-0.4-2.1,0.4-2.9c2.3-2.3,4.6-4.6,6.9-6.9
			c1-0.9,2.2-1,3.2-0.2C140.1,17.7,140.4,18.6,140.7,19z"/>
		<path class="st1" d="M54,76.9c0,5.1,0,9.4,0,13.8c0.1,6.3,2.8,10.9,8.8,13.1c1.9,0.7,3,1.2,1.8,3.7c-2.1,4.3-1.1,8.7,0.7,13
			c-21.3,2.4-38.5-6.9-45.8-24.5C8.8,70.1,27,41.4,54.9,40.2C59,40,63,40,67,40.2c5.5,0.3,8.4,3.4,8.4,9c0.1,13.7,0.1,27.5,0,41.2
			c0,5.3-3.4,8.8-8,8.8c-4.7,0-8-3.5-8-8.8c-0.1-9.7,0-19.4,0-29.1c0-2,0.4-4.7-2.5-4.8c-3-0.2-2.7,2.4-2.9,4.5
			c-0.9,7.5-4.2,13.6-10.4,18c-1.6,1.1-4.1,2.4-2.1,4.9c1.8,2.4,3.8,0.6,5.4-0.6C49.1,81.4,51.2,79.3,54,76.9z"/>
		<path class="st1" d="M123.3,56.2c-13.7,0-26.7-0.1-39.7,0c-2.6,0-2.9-1.3-2.8-3.3c0.1-4.2,0.5-8.4-2.1-11.9c1-1.4,2.1-0.9,3-0.9
			c15.4,0,30.7,0,46.1,0c3.9,0,7,1.3,8.7,5c1.4,3.1,0.7,5.9-1.4,8.3c-3.1,3.6-5.4,3.3-7.5-0.9c-0.8-1.6-1.5-3.2-2.4-4.8
			c-0.8-1.5-1.9-2.9-3.9-1.9c-1.9,1-1.6,2.7-1,4.3C121.2,52,122.1,53.6,123.3,56.2z"/>
		<path class="st1" d="M86.7,120.7c-3.3,0-6.6,0.1-9.9,0c-4.7-0.2-7.6-3-7.9-7.4c-0.2-4.4,2.5-8.2,6.9-8.4
			c7.3-0.3,14.6-0.3,21.9,0.1c4.5,0.3,7.4,4.1,7.2,8.2c-0.3,4.3-3.7,7.3-8.4,7.5c-0.3,0-0.6,0-0.9,0
			C92.7,120.7,89.7,120.7,86.7,120.7z"/>
		<path class="st1" d="M92.9,77.7c-12.3,0-12.2,0-12.1-12.4c0-2.9,0.8-3.9,3.8-3.8c5.5,0.2,11,0,16.6,0.1c5.7,0.1,9.4,3.4,9.3,8.1
			c-0.1,4.7-3.8,7.8-9.4,7.9C98.3,77.7,95.6,77.7,92.9,77.7z"/>
		<path class="st1" d="M78.6,99.2c2.5-4.3,2.5-8.6,2.3-12.9c-0.1-2.2,0.5-3.3,2.9-3.2c5.1,0.2,10.1-0.1,15.2,0.1
			c5.4,0.2,8.9,3.6,8.8,8.2c-0.1,4.6-3.7,7.8-9,7.8C92.2,99.2,85.6,99.2,78.6,99.2z"/>
		<path class="st48" d="M135.3,124.7c-0.3,2.6-1.7,4.8-4.3,6c-3,1.4-5.9,1-8.3-1.1c-2.1-1.8-2.8-4.2-1.8-6.9
			c0.3-0.7,0.4-1.5,0.7-2.1c1.7-3.2,2.8-7.1,6.5-8.5C129.9,111.6,135.4,121.3,135.3,124.7z"/>
		<path class="st5" d="M31.9,83c1.9,0,4.2-0.3,4.3,2.5c0,3-2.4,2.9-4.5,2.9c-2.1,0-4.6,0.3-4.5-2.7C27.3,82.8,29.9,83.1,31.9,83z"/>
	</g>
</g>
</svg>
